<?xml version="1.0" encoding="UTF-8" standalone="no"?>
<svg
   xmlns:dc="http://purl.org/dc/elements/1.1/"
   xmlns:cc="http://creativecommons.org/ns#"
   xmlns:rdf="http://www.w3.org/1999/02/22-rdf-syntax-ns#"
   xmlns:svg="http://www.w3.org/2000/svg"
   xmlns="http://www.w3.org/2000/svg"
   xmlns:xlink="http://www.w3.org/1999/xlink"
   style="clip-rule:evenodd;fill-rule:evenodd;stroke-linejoin:round;stroke-miterlimit:1.41400003"
   height="32"
   width="32"
   id="svg4"
   version="1.1"
   stroke-miterlimit="1.414"
   viewBox="0 0 32 32">
  <metadata
     id="metadata10">
    <rdf:RDF>
      <cc:Work
         rdf:about="">
        <dc:format>image/svg+xml</dc:format>
        <dc:type
           rdf:resource="http://purl.org/dc/dcmitype/StillImage" />
        <dc:title></dc:title>
      </cc:Work>
    </rdf:RDF>
  </metadata>
  <defs
     id="defs8">
    <style
       id="style130">.cls-1{fill:#253858;}.cls-2{fill:#2684ff;}.cls-3{fill:url(#New_Gradient_Swatch_1);}.cls-4{fill:url(#New_Gradient_Swatch_1-2);}</style>
    <linearGradient
       id="New_Gradient_Swatch_1"
       x1="53.959999"
       y1="17.290001"
       x2="39.25"
       y2="32.459999"
       gradientUnits="userSpaceOnUse">
      <stop
         offset="0.18"
         stop-color="#0052cc"
         id="stop132" />
      <stop
         offset="1"
         stop-color="#2684ff"
         id="stop134" />
    </linearGradient>
    <linearGradient
       gradientTransform="matrix(2.4817937,0,0,2.4817937,-1.9346837,5.8040514)"
       id="New_Gradient_Swatch_1-2"
       x1="37.830002"
       y1="34.619999"
       x2="20.82"
       y2="51.16"
       xlink:href="#New_Gradient_Swatch_1" />
  </defs>
  <path
     style="fill:#ffffff;fill-opacity:1;stroke-width:0.12307692"
     id="path951"
     d="M 23.997354,-0.007568 V 27.475844 L 0,23.911661 l 23.997354,8.080529 8,-3.327885 V 3.8164699 l 0.0026,-0.00123 -0.0026,-0.00529 V 3.3205241 Z" />
  <g
     transform="matrix(0.12307692,0,0,0.12307692,1.082863,1.8785353)"
     id="Layer_2"
     data-name="Layer 2">
    <path
       id="path150"
       d="M 168.83753,5.8040514 H 83.017114 A 38.7408,38.7408 0 0 0 121.75791,44.544851 h 15.80902 v 15.263031 a 38.7408,38.7408 0 0 0 38.71599,38.715982 V 13.249432 a 7.4453811,7.4453811 0 0 0 -7.44539,-7.4453806 z"
       class="cls-2"
       style="fill:#ffffff;stroke-width:2.48179364;fill-opacity:1" />
    <path
       id="path152"
       d="M 126.37404,48.565356 H 40.553624 a 38.7408,38.7408 0 0 0 38.715982,38.715982 h 15.809026 v 15.312672 a 38.7408,38.7408 0 0 0 38.740798,38.69116 V 56.010738 a 7.4453811,7.4453811 0 0 0 -7.44539,-7.445382 z"
       class="cls-3"
       style="fill:#ffffff;stroke-width:2.48179364;fill-opacity:1" />
    <path
       id="path154"
       d="M 83.885742,91.301844 H -1.9346837 A 38.7408,38.7408 0 0 0 36.806116,130.04264 h 15.858661 v 15.26303 a 38.7408,38.7408 0 0 0 38.666346,38.71599 V 98.747225 a 7.4453811,7.4453811 0 0 0 -7.445381,-7.445381 z"
       class="cls-4"
       style="fill:#ffffff;stroke-width:2.48179364;fill-opacity:1" />
  </g>
</svg>
